<svg preserveAspectRatio="xMidYMid meet" data-bbox="32.999 22.499 124.685 155.001" viewBox="32.999 22.499 124.685 155.001" height="200" width="200" xmlns="http://www.w3.org/2000/svg" data-type="color" role="img">
    <g>
        <path fill="#FA773C" d="M95.342 76.345l1.258 5.141-.758.186-1.258-5.141.758-.186z" data-color="1"></path>
        <path fill="#FA773C" d="M113.593 150.939l1.258 5.141-.759.186-1.258-5.141.759-.186z" data-color="1"></path>
        <path fill="#FA773C" d="M69.841 124.413l.185.757-5.151 1.256-.185-.758 5.151-1.255z" data-color="1"></path>
        <path fill="#FA773C" d="M144.585 106.193l.185.758-5.151 1.255-.185-.758 5.151-1.255z" data-color="1"></path>
        <path fill="#FA773C" d="M87.853 84.77l-2.548-4.641-.685.375 2.548 4.641.685-.375z" data-color="1"></path>
        <path fill="#FA773C" d="M121.593 147.844l2.549 4.642.685-.375-2.548-4.641-.686.374z" data-color="1"></path>
        <path fill="#FA773C" d="M68.476 135.689l.376.683 4.649-2.543-.375-.684-4.65 2.544z" data-color="1"></path>
        <path fill="#FA773C" d="M140.971 96.926l-.376-.684-4.649 2.544.375.684 4.65-2.544z" data-color="1"></path>
        <path fill="#FA773C" d="M76.585 86.378l-.564.539 3.664 3.825.565-.539-3.665-3.825z" data-color="1"></path>
        <path fill="#FA773C" d="M129.197 142.412l3.664 3.825.565-.539-3.665-3.825-.564.539z" data-color="1"></path>
        <path fill="#FA773C" d="M74.737 144.392l.54.563 3.832-3.657-.541-.564-3.831 3.658z" data-color="1"></path>
        <path fill="#FA773C" d="M130.337 91.317l.541.564 3.832-3.658-.54-.564-3.833 3.658z" data-color="1"></path>
        <path fill="#FA773C" d="M69.377 95.333l4.532 2.748.406-.666-4.532-2.748-.406.666z" data-color="1"></path>
        <path fill="#FA773C" d="M140.07 137.281l-4.532-2.747-.406.666 4.532 2.748.406-.667z" data-color="1"></path>
        <path fill="#FA773C" d="M86.462 147.063l-.668-.405-2.753 4.523.669.405 2.752-4.523z" data-color="1"></path>
        <path fill="#FA773C" d="M122.984 85.552l.669.405 2.753-4.523-.669-.405-2.753 4.523z" data-color="1"></path>
        <path fill="#FA773C" d="M70.452 105.914l-5.09-1.484-.219.749 5.089 1.483.22-.748z" data-color="1"></path>
        <path fill="#FA773C" d="M138.994 126.701l5.09 1.484.22-.749-5.09-1.483-.22.748z" data-color="1"></path>
        <path fill="#FA773C" d="M94.308 150.508l.749.219-1.486 5.08-.748-.219 1.485-5.08z" data-color="1"></path>
        <path fill="#FA773C" d="M115.87 76.799l.749.219-1.486 5.08-.748-.219 1.485-5.08z" data-color="1"></path>
        <path fill="#FA773C" d="M63.632 114.993l5.302.118-.017.78-5.302-.118.017-.78z" data-color="1"></path>
        <path fill="#FA773C" d="M140.55 116.7l5.302.117-.017.78-5.302-.118.018-.78z" data-color="1"></path>
        <path fill="#FA773C" d="M103.524 152.054l.782.017-.119 5.29-.781-.017.118-5.29z" data-color="1"></path>
        <path fill="#FA773C" d="M105.246 75.28l.782.017-.119 5.292-.781-.017.118-5.292z" data-color="1"></path>
        <path d="M80.455 169.877c-.475 1.489-.34 3.073.378 4.46s1.937 2.413 3.427 2.887a5.853 5.853 0 0 0 1.774.276c2.484 0 4.795-1.59 5.588-4.076l2.25-7.059-11.167-3.548-2.25 7.06zm11.455-2.499l-1.777 5.573a4.26 4.26 0 0 1-2.121 2.509 4.265 4.265 0 0 1-3.277.277 4.292 4.292 0 0 1-2.791-5.388l1.776-5.573 8.19 2.602z" fill="#FA773C" data-color="1"></path>
        <path d="M150.571 152.787l-5.259-5.229-8.272 8.286 5.257 5.229a5.85 5.85 0 0 0 4.136 1.703 5.85 5.85 0 0 0 4.151-1.717 5.81 5.81 0 0 0 1.71-4.139 5.808 5.808 0 0 0-1.723-4.133zm-1.093 7.17a4.308 4.308 0 0 1-6.077.011l-4.151-4.128 6.067-6.076 4.151 4.128a4.258 4.258 0 0 1 1.264 3.031 4.26 4.26 0 0 1-1.254 3.034z" fill="#FA773C" data-color="1"></path>
        <path d="M117.283 102.416l-10.625 11.283a3.573 3.573 0 0 0-1.908-.497c-.004-.03.004-.058-.004-.087L99.311 90.9a.78.78 0 1 0-1.519.37l5.435 22.215c.007.03.025.053.035.081a3.568 3.568 0 0 0-1.904 4.053 3.58 3.58 0 0 0 6.956-1.695 3.538 3.538 0 0 0-.523-1.151l10.63-11.288a.78.78 0 0 0-1.138-1.069z" fill="#FA773C" data-color="1"></path>
        <path d="M149.056 25.534a.783.783 0 0 0-.99-.489l-2.429.821V23.28a.78.78 0 1 0-1.562 0v2.587l-2.429-.821a.78.78 0 1 0-.5 1.478l2.448.827-1.505 2.037a.779.779 0 0 0 .628 1.242.78.78 0 0 0 .629-.317l1.511-2.045 1.51 2.045a.779.779 0 0 0 1.091.165.779.779 0 0 0 .166-1.091l-1.504-2.037 2.448-.827a.78.78 0 0 0 .488-.989z" fill="#4854C7" data-color="2"></path>
        <path d="M37.147 46.665a.78.78 0 0 1-.657-1.2l1.985-3.094a.78.78 0 0 1 1.316.841l-1.985 3.094a.783.783 0 0 1-.659.359z" fill="#FA773C" data-color="1"></path>
        <path d="M37.149 46.665a.78.78 0 0 1-.611-.293l-2.283-2.848a.78.78 0 1 1 1.221-.974l2.283 2.848a.78.78 0 0 1-.61 1.267z" fill="#FA773C" data-color="1"></path>
        <path d="M40.695 47.543a.764.764 0 0 1-.189-.023l-3.546-.878a.78.78 0 1 1 .377-1.514l3.546.878a.78.78 0 0 1-.188 1.537z" fill="#FA773C" data-color="1"></path>
        <path d="M37.384 50.256a.78.78 0 0 1-.779-.729l-.237-3.591a.78.78 0 0 1 .729-.829.783.783 0 0 1 .831.727l.237 3.591a.78.78 0 0 1-.729.829l-.052.002z" fill="#FA773C" data-color="1"></path>
        <path d="M33.782 47.953a.779.779 0 0 1-.279-1.508l3.366-1.288a.779.779 0 1 1 .559 1.456l-3.366 1.288a.792.792 0 0 1-.28.052z" fill="#FA773C" data-color="1"></path>
        <path fill="#4854C7" d="M63.042 42.543a1.381 1.381 0 1 1-2.762-.002 1.381 1.381 0 0 1 2.762.002z" data-color="2"></path>
        <path d="M50.841 86.22l-1.473-.524c.106-.296 2.697-7.344 12.066-15.426 9.99-8.616 17.7-10.567 18.024-10.646l.372 1.515c-.076.019-7.696 1.964-17.373 10.311-9.061 7.815-11.592 14.701-11.616 14.77z" fill="#FA773C" data-color="1"></path>
        <path d="M137.21 65.17c-.054-.049-5.522-5.006-17.13-7.764-12.483-2.964-20.103-1.177-20.178-1.158l-.371-1.515c.324-.079 8.066-1.894 20.911 1.157 12.046 2.862 17.601 7.925 17.832 8.139l-1.064 1.141z" fill="#FA773C" data-color="1"></path>
        <path d="M104.838 159.463c-19.253.002-36.784-13.087-41.549-32.566-2.71-11.077-.936-22.544 4.995-32.289s15.309-16.602 26.408-19.307c22.905-5.586 46.1 8.477 51.694 31.342 2.71 11.077.936 22.544-4.995 32.289s-15.31 16.602-26.408 19.306a42.72 42.72 0 0 1-10.145 1.225zm-.003-83.045c-3.166 0-6.379.374-9.589 1.156-10.49 2.557-19.354 9.038-24.96 18.249-5.606 9.211-7.282 20.05-4.721 30.519 5.288 21.613 27.206 34.903 48.862 29.624 10.49-2.557 19.354-9.038 24.96-18.248 5.606-9.211 7.282-20.05 4.721-30.519-4.505-18.41-21.077-30.781-39.273-30.781z" fill="#4854C7" data-color="2"></path>
        <path d="M145.557 139.516a1.172 1.172 0 0 0-1.614.375l-.251.395c-.171.265-.344.529-.52.79a1.168 1.168 0 0 0 .971 1.824c.376 0 .747-.181.973-.516a49.45 49.45 0 0 0 .817-1.255 1.17 1.17 0 0 0-.376-1.613z" fill="#4854C7" data-color="2"></path>
        <path d="M150.108 105.759a1.17 1.17 0 0 0-.861 1.414 42.463 42.463 0 0 1-3.545 29.645 1.168 1.168 0 0 0 1.04 1.707c.424 0 .833-.231 1.042-.632a44.79 44.79 0 0 0 3.74-31.275 1.17 1.17 0 0 0-1.416-.859z" fill="#4854C7" data-color="2"></path>
        <path d="M156.155 104.263c-3.28-13.407-11.503-24.767-23.18-32.099 3.205-.077 5.272-.667 5.542-1.789.03-.123.031-.251.017-.382a21.251 21.251 0 0 0-2.643-15.842c-2.996-4.885-7.718-8.313-13.297-9.653a21.377 21.377 0 0 0-16.241 2.559 21.298 21.298 0 0 0-9.63 13.119c-.02.049-.042.097-.054.149-.258 1.071 1.161 2.453 3.743 3.902a53.616 53.616 0 0 0-8.108 1.324 53.448 53.448 0 0 0-9.357 3.229c1.797-2.648 2.512-4.667 1.754-5.538-.014-.017-.039-.024-.054-.04a21.355 21.355 0 0 0-14.667-7.28c-5.726-.401-11.262 1.445-15.594 5.201-8.848 7.67-9.873 21.03-2.372 29.957.048.123.109.236.192.332.894 1.027 3.661.252 7.365-1.812-7.229 11.993-9.381 26.073-6.052 39.678 5.887 24.059 27.54 40.225 51.32 40.223 4.135 0 8.34-.49 12.531-1.511 13.708-3.341 25.292-11.81 32.618-23.847 7.324-12.035 9.514-26.199 6.167-39.88zM99.62 58.748a18.952 18.952 0 0 1 7.958-9.695 19.034 19.034 0 0 1 14.469-2.279 19.012 19.012 0 0 1 11.846 8.599 18.926 18.926 0 0 1 2.679 12.23c-3.176-2.3-9.877-4.954-17.863-6.873-8.021-1.926-15.224-2.602-19.089-1.982zM52.653 88.056a18.922 18.922 0 0 1-3.271-12.085 18.966 18.966 0 0 1 6.541-13.081 19.029 19.029 0 0 1 13.893-4.633 19.006 19.006 0 0 1 11.551 4.942c-3.714 1.223-9.799 5.135-16.035 10.541-6.202 5.375-10.922 10.814-12.679 14.316zm95.33 54.874c-7.001 11.503-18.07 19.596-31.169 22.789-27.042 6.592-54.414-10.005-61.018-36.995-3.199-13.074-1.105-26.609 5.896-38.112s18.07-19.596 31.169-22.788a50.513 50.513 0 0 1 11.975-1.444c22.723 0 43.418 15.449 49.043 38.439 3.198 13.073 1.104 26.608-5.896 38.111z" fill="#4854C7" data-color="2"></path>
    </g>
</svg>