<svg preserveAspectRatio="xMidYMid meet" data-bbox="59 24 82 152.1" viewBox="59 24 82 152.1" height="200" width="200" xmlns="http://www.w3.org/2000/svg" data-type="color" role="img">
    <g>
        <path d="M124.6 24H75.4C69.7 24 59 27.4 59 40.2v119.5c0 5.7 3.4 16.4 16.4 16.4h49.2c5.7 0 16.4-3.4 16.4-16.4V40.4c-.2-5.7-3.6-16.4-16.4-16.4zM63.5 44.8h72.9v98.7H63.5V44.8zm72.9 115c0 11.4-10.7 11.9-11.9 11.9h-49c-11.4 0-11.9-10.7-11.9-11.9v-11.9h72.9v11.9zM63.5 40.4c0-11.6 10.7-11.9 11.9-11.9h49.2c11.4 0 11.9 10.7 11.9 11.9h-73z" fill="#415156" data-color="1"></path>
        <path d="M100 168.9c4.6 0 8.6-3.7 8.6-8.5 0-4.6-3.7-8.5-8.6-8.5s-8.6 3.7-8.6 8.5c0 4.6 3.8 8.5 8.6 8.5zm0-12.6c2.3 0 4.1 1.8 4.1 4.1s-2 4.1-4.1 4.1c-2.3 0-4.1-1.8-4.1-4.1s1.8-4.1 4.1-4.1z" fill="#415156" data-color="1"></path>
        <path d="M104.6 33.2H93.8c-1.1 0-1.8.8-1.8 1.8 0 1.1.7 1.8 1.8 1.8h10.9c1.1 0 1.8-.7 1.8-1.8-.1-1-1-1.8-1.9-1.8z" fill="#415156" data-color="1"></path>
    </g>
</svg>