<svg preserveAspectRatio="xMidYMid meet" data-bbox="30.6 39.7 139.1 117" viewBox="30.6 39.7 139.1 117" height="200" width="200" xmlns="http://www.w3.org/2000/svg" data-type="color" role="img">
    <g>
        <path d="M58.7 39.7h-8.3c-10.9 0-19.8 8.9-19.8 19.8v36.2h47.9V59.6c0-11-8.9-19.8-19.8-19.9zm10.9 26c-.9.4-1.9.2-2.6-.5-.4-.4-.7-1-.7-1.6 0-3-1.5-5.8-3.9-7.5-1.4-1-3-1.7-4.8-1.8-.7 0-1.4-.1-2.1-.5-.9-.6-1.2-1.6-1-2.6.3-1.1 1.3-1.8 2.4-1.7 7.5.1 13.5 6 13.9 13.4.2 1.5-.2 2.3-1.2 2.8z" fill="#2289e8" data-color="1"></path>
        <path d="M128.9 66.3c-22.5.1-40.7 18.3-40.8 40.8.1 22.5 18.3 40.7 40.8 40.8 22.5-.1 40.7-18.3 40.8-40.8-.1-22.5-18.3-40.7-40.8-40.8zm24.3 26l-43.6 37.1c-1.7 1.5-4.3 1.3-5.8-.4-1.5-1.7-1.3-4.3.4-5.8l.1-.1L147.8 86c1.7-1.5 4.3-1.3 5.8.4 1.6 1.7 1.4 4.3-.4 5.9 0-.1 0-.1 0 0z" fill="#2289e8" data-color="1"></path>
        <path d="M30.6 100.7v36.2c0 10.9 8.9 19.8 19.8 19.8h8.3c10.9 0 19.8-8.9 19.8-19.8v-36.2H30.6z" fill="#6dd1ca" data-color="2"></path>
    </g>
</svg>