<?xml version="1.0" encoding="utf-8"?>
<!-- Generator: Adobe Illustrator 22.0.1, SVG Export Plug-In . SVG Version: 6.00 Build 0)  -->
<svg version="1.1" xmlns="http://www.w3.org/2000/svg" xmlns:xlink="http://www.w3.org/1999/xlink" x="0px" y="0px" width="425.2px"
	 height="425.2px" viewBox="0 0 425.2 425.2" style="enable-background:new 0 0 425.2 425.2;" xml:space="preserve">
<style type="text/css">
	.st0{display:none;}
	.st1{display:inline;}
	.st2{display:none;fill:none;stroke:#004F9F;stroke-width:16;stroke-miterlimit:10;}
	.st3{display:none;fill:#004F9F;}
	.st4{display:inline;fill:#004F9F;}
	.st5{display:inline;fill:#FEFEFE;}
	.st6{fill:#00509D;}
</style>
<g id="Ebene_2" class="st0">
</g>
<g id="Ebene_1">
	<g class="st0">
		<path class="st1" d="M174.7,147.6l0-68.9c0-12.8,10.4-23.2,23.2-23.2l127.3,0c12.8,0,23.2,10.4,23.2,23.2v291.9H328
			c0-5.2,0-243.3,0-287.3c0-3.8-3-7-6.9-7c-23.7,0-101,0-118.9,0c-3.9,0-7,3.1-7,7l0,64.7l86.8,0c12.8,0,23.2,10.4,23.2,23.2
			c0,54.8,0,188.5,0,199.5H78c0-8.2,0-144.4,0-199.9c0-12.8,10.4-23.2,23.2-23.2L174.7,147.6z M105.5,168.9c-3.9,0-7,3.1-7,7
			c0,8.8,0,168.2,0,174.2h77.1V298h30.9v51.9h78c0-10.8,0-140.7,0-174.1c0-3.9-3.1-7-7-7L105.5,168.9z"/>
		<path class="st1" d="M219.2,128.8c0-10.2,0-20,0-30.2c10.3,0,20.3,0,30.6,0c0,10.1,0,19.9,0,30.2
			C239.7,128.8,229.7,128.8,219.2,128.8z"/>
		<path class="st1" d="M273.2,98.6c10.3,0,20.3,0,30.5,0c0,10.2,0,20,0,30.3c-10.3,0-20.2,0-30.5,0
			C273.2,118.8,273.2,108.9,273.2,98.6z"/>
		<path class="st1" d="M206.4,244.9c0,10.4,0,20.3,0,30.5c-10.3,0-20.3,0-30.6,0c0-10.1,0-20.1,0-30.5
			C185.9,244.9,196,244.9,206.4,244.9z"/>
		<path class="st1" d="M121.9,297.9c10.2,0,20.2,0,30.4,0c0,10.2,0,20.2,0,30.6c-10,0-20,0-30.4,0
			C121.9,318.4,121.9,308.3,121.9,297.9z"/>
		<path class="st1" d="M121.9,222.1c0-10.2,0-20.1,0-30.3c10.3,0,20.3,0,30.5,0c0,10.2,0,20.1,0,30.3
			C142.3,222.1,132.3,222.1,121.9,222.1z"/>
		<path class="st1" d="M175.8,191.8c10.1,0,20.3,0,30.6,0c0,10.3,0,20.1,0,30.3c-10.2,0-20.2,0-30.6,0
			C175.8,212.1,175.8,202.1,175.8,191.8z"/>
		<path class="st1" d="M152.2,275.5c-10.1,0-19.9,0-30.5,0c0-2.5,0-4.9,0-7.3c0-6.7-0.1-13.3-0.2-20c0-2.4,0.4-3.8,3.3-3.8
			c9,0.1,18,0,27.4,0C152.2,254.9,152.2,265,152.2,275.5z"/>
		<path class="st1" d="M260.1,298c0,10.2,0,20.2,0,30.5c-10.2,0-20.1,0-30.3,0c0-10.2,0-20.2,0-30.5C239.9,298,249.9,298,260.1,298z
			"/>
		<path class="st1" d="M229.9,244.7c10.2,0,20,0,30.2,0c0,10.3,0,20.4,0,30.8c-10,0-19.9,0-30.2,0
			C229.9,265.3,229.9,255.2,229.9,244.7z"/>
		<path class="st1" d="M260.1,222.2c-10.4,0-20.3,0-30.4,0c0-10.1,0-20,0-30.4c10.1,0,20,0,30.4,0
			C260.1,201.9,260.1,211.9,260.1,222.2z"/>
	</g>
	<circle class="st2" cx="215" cy="215.6" r="136.5"/>
	<polygon class="st3" points="168.6,148.1 285.6,215.6 168.6,283.1 	"/>
	<g class="st0">
		<path class="st4" d="M164.8,361.7c-1.6,0-3.1,0-4.7,0c-4.8-1.7-6.2-5.8-3.3-10.1c0.9-1.3,2-2.4,3.1-3.4
			c15.3-15.3,30.5-30.7,45.9-45.8c2.6-2.6,3.1-5.4,2.8-8.7c-0.1-1.5-0.9-2-2.2-2.1c-1.1,0-2.1,0-3.2,0c-43.7,0-87.5,0-131.2,0
			c-1.7,0-3.5,0.4-5-0.8c0-67.9,0-135.8,0-203.7c1.6-1.3,3.5-0.9,5.3-0.9c43.2,0,86.5,0,129.7,0c7.3,0,6.6,0.5,6.6-6.5
			c0-3-0.2-6,0.1-9c0.3-3.2,1.4-5.9,4.9-6.8c1.6,0,3.1,0,4.7,0c3.6,0.8,4.7,3.5,4.9,6.7c0.3,3.8,0.1,7.6,0.1,11.3
			c0,4.1,0.2,4.3,4.3,4.3c29.1,0,58.2,0,87.3,0c15.1,0,30.3,0,45.4,0c1.6,0,3.3-0.3,4.7,0.9c0,67.9,0,135.8,0,203.7
			c-1.5,1.2-3.3,0.8-5,0.8c-43.7,0-87.5,0-131.2,0c-5.5,0-6.7,1.6-5.4,7c0.4,1.6,1.6,2.6,2.7,3.7c15.3,15.3,30.6,30.6,45.9,45.9
			c1.1,1.1,2.2,2.1,3.1,3.4c2.9,4.1,1.5,8.5-3.2,10.2c-1.6,0-3.1,0-4.7,0c-2.3-0.7-4.1-2.1-5.7-3.8c-12.7-12.8-25.5-25.5-38.4-38.4
			c-0.1,3.9,0.1,7.6-0.1,11.3c-0.1,3.3-1.3,6.1-4.7,7.4c-4,1.5-8.1-0.8-9.2-5.1c-0.7-2.9-0.3-5.8-0.4-8.7c0-1.6-0.1-3.2,0.1-5
			c-13.1,13.1-26.1,26.1-39.1,39.2C168.4,360,166.8,361.1,164.8,361.7z"/>
		<path class="st5" d="M164.8,361.7c2.5-1.4,4.4-3.5,6.4-5.5c12.7-12.7,25.3-25.3,38.4-38.4c0,4.5,0,8.5,0,12.5
			c0,1.9,0.3,3.7,1.5,5.3c1.9,2.5,4.5,3,7.2,2c3-1.1,4.1-3.7,4.1-6.8c0.1-4.1,0-8.3,0-12.9c1,0.9,1.6,1.5,2.3,2.2
			c11.7,11.7,23.4,23.4,35.1,35.1c2.3,2.3,4.7,4.7,7.4,6.5C233.1,361.7,198.9,361.7,164.8,361.7z"/>
		<path class="st5" d="M216,277.9c-44.6,0-89.2,0-133.9,0.1c-2.4,0-3-0.5-3-3c0.1-57.4,0.1-114.9,0-172.3c0-2.4,0.6-3,3-3
			c89.2,0.1,178.5,0.1,267.7,0c2.4,0,3,0.5,3,3c-0.1,57.4-0.1,114.9,0,172.3c0,2.4-0.6,3-3,3C305.2,277.8,260.6,277.9,216,277.9z"/>
		<path class="st4" d="M121.9,194.7c4.5,2.1,7.2-2.4,10.5-4.9c7.5-5.4,14.7-11.2,22.2-16.6c1-0.7,1.4-1.3,1.4-2.5
			c0.3-6.7,5.5-11.9,12-12.2c5.3-0.3,12.1,4.8,12.2,10.1c0.1,3.9,2.5,5.1,4.8,6.7c10.4,7.7,20.8,15.2,31.3,22.8
			c3.7,2.7,7.5,5.4,11.2,8.1c1.1,0.8,2.1,1.1,3.5,0.6c1.6-0.6,3.2-0.9,4.9-0.1c2.4,1.1,4-0.8,5.6-2c12.2-9.4,24.3-18.9,36.5-28.3
			c6.6-5.1,13.2-10.1,19.8-15.1c1.1-0.8,1.3-1.6,1.3-2.8c0-5.9,4.3-10.6,10-11.7c5.4-1.1,11.3,2.3,13.4,7.4c1.9,4.6,1.1,9-2,12.6
			c-3,3.5-7,5.2-11.9,3.9c-1.1-0.3-2.1-0.1-3.2,0.7c-7.3,5.7-14.7,11.3-22,16.9c-7,5.3-13.9,10.7-20.9,16
			c-5.2,3.9-10.4,7.8-15.6,11.8c-1.5,1.2-1.1,3.2-1.3,4.8c-0.7,4.8-5.5,10.5-13.5,9.7c-5.3-0.5-10.5-5.2-10.3-11.1
			c0.1-2.4-1.6-3-2.9-4c-14.7-10.7-29.4-21.4-44.1-32.1c-1.1-0.8-2-1.5-3.6-0.7c-0.8,0.5-2.1,0.3-3.1,0.1c-3.6-0.9-6.2,0.6-9,2.8
			c-8.2,6.5-16.7,12.6-25.1,18.8c-0.9,0.7-1.3,1.3-1.3,2.5c-0.2,6.9-4.7,11.2-11.6,12c-5.5,0.6-10.7-4-12.3-9.5
			C106.4,201.4,114.2,193.8,121.9,194.7z"/>
	</g>
	<g>
		<path class="st6" d="M342.6,163.2c-8.5-8.5-22.2-8.5-30.7,0c-2.6,2.6-19.2,19.2-21.8,21.8v-57.3c0-5.8-2.3-11.2-6.4-15.3
			l-20.5-20.5c-4.1-4.1-9.6-6.4-15.4-6.4H123.7c-12,0-21.7,9.7-21.7,21.7v203.6c0,12,9.7,21.7,21.7,21.7h144.7
			c12,0,21.7-9.7,21.7-21.7v-64.3l52.5-52.5C351.1,185.4,351.1,171.7,342.6,163.2z M246.8,100c1.4,0,4-0.2,6.4,2.1l20.5,20.5
			c2.3,2.3,2.1,4.8,2.1,6.4h-28.9V100z M275.7,310.8c0,4-3.2,7.2-7.2,7.2H123.7c-4,0-7.2-3.2-7.2-7.2V107.2c0-4,3.2-7.2,7.2-7.2
			h108.5v36.2c0,4,3.2,7.2,7.2,7.2h36.2v56.1c0,0-21.3,21.4-21.3,21.4l-10.2,10.2c-0.8,0.8-1.4,1.8-1.7,2.8l-10.2,30.7
			c-0.9,2.6-0.2,5.5,1.7,7.4c1.9,1.9,4.8,2.6,7.4,1.7l30.7-10.2c1.1-0.4,2-1,2.8-1.7l0.9-0.9V310.8z M259.5,236.2l10.2,10.2
			l-3.9,3.9l-15.3,5.1l5.1-15.3L259.5,236.2z M279.9,236.2L269.7,226c5.4-5.5,29.7-29.7,34.8-34.8l10.2,10.2L279.9,236.2z
			 M332.4,183.7l-7.5,7.5l-10.2-10.2l7.5-7.5c2.8-2.8,7.4-2.8,10.2,0C335.2,176.3,335.2,180.9,332.4,183.7z"/>
		<path class="st6" d="M138.2,172.3h101.3c4,0,7.2-3.2,7.2-7.2s-3.2-7.2-7.2-7.2H138.2c-4,0-7.2,3.2-7.2,7.2
			S134.2,172.3,138.2,172.3z"/>
		<path class="st6" d="M138.2,201.3h72.4c4,0,7.2-3.2,7.2-7.2s-3.2-7.2-7.2-7.2h-72.4c-4,0-7.2,3.2-7.2,7.2S134.2,201.3,138.2,201.3
			z"/>
		<path class="st6" d="M138.2,230.2h72.4c4,0,7.2-3.2,7.2-7.2s-3.2-7.2-7.2-7.2h-72.4c-4,0-7.2,3.2-7.2,7.2S134.2,230.2,138.2,230.2
			z"/>
		<path class="st6" d="M217.8,251.9c0-4-3.2-7.2-7.2-7.2h-72.4c-4,0-7.2,3.2-7.2,7.2s3.2,7.2,7.2,7.2h72.4
			C214.6,259.2,217.8,255.9,217.8,251.9z"/>
		<path class="st6" d="M239.5,289.1h-43.4c-4,0-7.2,3.2-7.2,7.2s3.2,7.2,7.2,7.2h43.4c4,0,7.2-3.2,7.2-7.2S243.5,289.1,239.5,289.1z
			"/>
	</g>
</g>
</svg>
